<?xml version="1.0" standalone="no"?><!DOCTYPE svg PUBLIC "-//W3C//DTD SVG 1.1//EN" "http://www.w3.org/Graphics/SVG/1.1/DTD/svg11.dtd"><svg class="icon" width="200px" height="200.00px" viewBox="0 0 1024 1024" version="1.1" xmlns="http://www.w3.org/2000/svg"><path fill="#333333" d="M196.163193 648.548956l-67.723428 0c-15.564487 0-28.217668-12.653181-28.217668-28.217668l0-390.391315c1.768273 0.626263 3.662413 0.984421 5.643534 0.984421l632.080889 0c1.982144 0 3.876284-0.358157 5.643534-0.984421l0 51.777247c0 9.346879 7.584746 16.930601 16.931624 16.930601 9.348925 0 16.930601-7.583722 16.930601-16.930601L777.452279 168.844499c0-34.235732-27.864628-62.079894-62.079894-62.079894L128.440789 106.764606c-34.215266 0-62.079894 27.843138-62.079894 62.079894l0 451.486788c0 34.236755 27.864628 62.078871 62.079894 62.078871l67.723428 0c9.347902 0 16.930601-7.581676 16.930601-16.930601C213.093794 656.133701 205.511095 648.548956 196.163193 648.548956zM128.440789 140.626831l586.931596 0c15.565511 0 28.217668 12.654204 28.217668 28.217668l0 29.203112c-1.76725-0.626263-3.66139-0.984421-5.643534-0.984421L105.866654 197.063191c-1.982144 0-3.876284 0.358157-5.643534 0.984421l0-29.203112C100.222097 153.281035 112.876302 140.626831 128.440789 140.626831zM895.96751 332.508 309.03489 332.508c-34.215266 0-62.079894 27.843138-62.079894 62.079894l0 451.485765c0 34.236755 27.864628 62.078871 62.079894 62.078871l586.93262 0c34.215266 0 62.078871-27.842115 62.078871-62.078871L958.046381 394.587893C958.047404 360.352161 930.182776 332.508 895.96751 332.508zM309.03489 366.370225l586.93262 0c15.564487 0 28.217668 12.654204 28.217668 28.217668l0 29.203112c-1.768273-0.626263-3.662413-0.984421-5.644557-0.984421L286.460756 422.806585c-1.982144 0-3.876284 0.358157-5.643534 0.984421l0-29.203112C280.817222 379.024429 293.470403 366.370225 309.03489 366.370225zM895.96751 874.291326 309.03489 874.291326c-15.564487 0-28.217668-12.653181-28.217668-28.217668l0-390.391315c1.768273 0.626263 3.662413 0.984421 5.643534 0.984421l632.080889 0c1.982144 0 3.876284-0.358157 5.644557-0.984421l0 390.391315C924.186202 861.638145 911.531997 874.291326 895.96751 874.291326z" /></svg>