<?xml version="1.0" standalone="no"?><!DOCTYPE svg PUBLIC "-//W3C//DTD SVG 1.1//EN" "http://www.w3.org/Graphics/SVG/1.1/DTD/svg11.dtd"><svg class="icon" width="200px" height="200.00px" viewBox="0 0 1024 1024" version="1.1" xmlns="http://www.w3.org/2000/svg"><path fill="#333333" d="M523.8357782983112 684.8023654855111c14.202934734696296 0 23.67155659662222-9.468623156464195 23.67155659662222-23.67155659662222v-139.66218573242463h139.66218702696295c14.202934734696296 0 23.67155659662222-9.468623156464195 23.67155659662222-23.67155789116049s-9.468623156464195-23.67155659662222-23.67155659662222-23.67155659662222h-139.66218702696295v-139.66218573242463c0-14.202934734696296-9.468623156464195-23.67155659662222-23.67155659662222-23.67155659662222s-23.67155659662222 9.468623156464195-23.67155659662222 23.67155659662222v139.66218573242463h-139.66218573242463c-14.202934734696296 0-23.67155659662222 9.468623156464195-23.67155789116049 23.67155659662222s9.468623156464195 23.67155659662222 23.67155789116049 23.67155789116049h139.66218573242463v139.66218573242463c0 14.202934734696296 9.468623156464195 23.67155659662222 23.67155659662222 23.67155659662222z"  /><path fill="#333333" d="M526.2029347346962 966.4938933867456c4.734311578232098 0 9.468623156464195-2.3671551418469137 11.83577829831111-4.734311578232098l158.59943075081483-101.78769440110615c130.19356387049874-94.68622768102716 205.94254523859755-177.5366770637432 205.94254653313578-324.30033081078517V187.69966918921477c0-11.83577829831111-9.468623156464195-21.304401454775306-18.93724631292839-23.67155659662222-52.07742477147655-7.101466720079011-168.06805390727905-35.50733489493334-347.9718874074074-132.5607190123457-7.101466720079011-4.734311578232098-14.202934734696296-4.734311578232098-21.304401454775306 0-182.2709886419753 97.05338411741235-295.89446263593084 125.45925229226665-347.9718874074074 132.5607190123457-11.83577829831111 2.3671551418469137-18.937245018390122 11.83577829831111-18.937245018390122 23.67155659662222V535.6715565966222c0 149.1308088888889 78.11613780448396 231.98125827160493 210.6768568168296 324.30033081078517l26.038713033007408 16.57008987654321c11.83577829831111 7.101466720079011 26.038713033007408 4.734311578232098 33.14017975308642-7.101466720079011 7.101466720079011-11.83577829831111 4.734311578232098-26.038713033007408-7.101466720079011-33.14017975308642l-28.40586946939259-16.57008987654321c-123.09209585588148-85.21760452456297-189.37245536205432-156.2322756089679-189.37245536205432-284.05868433761975V209.0040706439902c61.54604792794074-11.83577829831111 170.43521034366415-44.97595805139753 331.4017975308642-127.82640743411356 160.96658718719996 85.21760452456297 272.22290474477035 115.99062913580246 331.4017975308642 127.82640743411356V535.6715565966222c0 127.82640743411356-63.91320436432592 196.47392337667162-187.00530022020743 284.05868433761975L512 921.517935335348c-11.83577829831111 7.101466720079011-14.202934734696296 21.304401454775306-7.101466720079011 33.14017975308642 4.734311578232098 7.101466720079011 11.83577829831111 11.83577829831111 21.304401454775306 11.83577829831111z"  /></svg>