<?xml version="1.0" standalone="no"?><!DOCTYPE svg PUBLIC "-//W3C//DTD SVG 1.1//EN" "http://www.w3.org/Graphics/SVG/1.1/DTD/svg11.dtd"><svg class="icon" width="200px" height="200.00px" viewBox="0 0 1024 1024" version="1.1" xmlns="http://www.w3.org/2000/svg"><path fill="#333333" d="M938.666667 938.666667H85.333333c-48.355556 0-85.333333-36.977778-85.333333-85.333334s36.977778-85.333333 85.333333-85.333333h853.333334c48.355556 0 85.333333 36.977778 85.333333 85.333333s-36.977778 85.333333-85.333333 85.333334zM85.333333 426.666667h426.666667c48.355556 0 85.333333 36.977778 85.333333 85.333333s-36.977778 85.333333-85.333333 85.333333H85.333333c-48.355556 0-85.333333-36.977778-85.333333-85.333333s36.977778-85.333333 85.333333-85.333333z m853.333334-170.666667H85.333333C36.977778 256 0 219.022222 0 170.666667s36.977778-85.333333 85.333333-85.333334h853.333334c48.355556 0 85.333333 36.977778 85.333333 85.333334s-36.977778 85.333333-85.333333 85.333333z"  /></svg>