<?xml version="1.0" standalone="no"?><!DOCTYPE svg PUBLIC "-//W3C//DTD SVG 1.1//EN" "http://www.w3.org/Graphics/SVG/1.1/DTD/svg11.dtd"><svg class="icon" width="200px" height="200.00px" viewBox="0 0 1024 1024" version="1.1" xmlns="http://www.w3.org/2000/svg"><path fill="#333333" d="M883.421264 25.189705l-745.519498 0c-36.991496 0-67.086931 30.095435-67.086931 67.086931l0 819.241546c0 36.991496 30.095435 67.087954 67.086931 67.087954l487.422232 0c17.541515 0.264013 67.521836 4.910846 89.899496 23.094998 3.414773 2.774183 7.523347 4.124947 11.605316 4.124947 5.354961 0 10.665921-2.323928 14.304797-6.803963 6.41613-7.894807 5.216815-19.49603-2.677992-25.910113-36.368302-29.554106-105.063871-31.247678-112.77653-31.343869l-487.777319-0.001023c-16.678868 0-30.247908-13.570063-30.247908-30.248931L107.653859 92.276636c0-16.678868 13.56904-30.247908 30.247908-30.247908l162.213475 0-0.037862 0.470721-0.130983-0.011256c1.402953 0.134053 34.07405 3.588735 47.286979 33.641191 2.585895 10.102079 15.581883 50.080605 60.71685 58.043974l1.588171 0.280386 179.597401 0 1.588171-0.280386c45.134966-7.963369 58.136072-47.945989 60.721967-58.043974 13.207813-30.049387 45.884027-33.507138 47.285956-33.640168l-0.130983 0.011256-0.037862-0.470721 184.858218 0c16.678868 0 30.248931 13.56904 30.248931 30.247908l0 819.241546c0 16.678868-13.570063 30.248931-30.248931 30.248931l-89.517803 0c-10.172687 0-18.419512 8.246825-18.419512 18.419512s8.246825 18.419512 18.419512 18.419512l89.517803 0c36.991496 0 67.087954-30.095435 67.087954-67.087954L950.509219 92.276636C950.508195 55.285141 920.41276 25.189705 883.421264 25.189705zM616.85614 83.33601l-0.695848 1.690502-0.350994 1.793856c-0.050142 0.258896-5.26184 25.508977-30.04734 30.794353L412.913261 117.614721C389.157207 112.536053 383.307989 88.754417 382.857734 86.7559l-0.273223-1.568728-0.763386-1.853208c-3.38305-8.213056-7.585769-15.259542-12.276604-21.306258l259.586177 0C624.439862 68.075445 620.237143 75.122955 616.85614 83.33601zM747.283678 297.776987l-571.84397 0c-10.172687 0-18.419512 8.246825-18.419512 18.419512s8.246825 18.419512 18.419512 18.419512l571.84397 0c10.172687 0 18.419512-8.246825 18.419512-18.419512S757.456365 297.776987 747.283678 297.776987zM747.283678 528.949021l-571.84397 0c-10.172687 0-18.419512 8.246825-18.419512 18.419512s8.246825 18.419512 18.419512 18.419512l571.84397 0c10.172687 0 18.419512-8.246825 18.419512-18.419512S757.456365 528.949021 747.283678 528.949021zM175.438685 456.285071l381.232724 0c10.172687 0 18.419512-8.246825 18.419512-18.419512s-8.246825-18.419512-18.419512-18.419512l-381.232724 0c-10.172687 0-18.419512 8.246825-18.419512 18.419512S165.265998 456.285071 175.438685 456.285071z" /></svg>